<svg width="32" height="32" viewBox="0 0 32 32" fill="none" xmlns="http://www.w3.org/2000/svg">
  <rect width="32" height="32" fill="transparent"/>
  <path d="M8 12C8 10.8954 8.89543 10 10 10H12C13.1046 10 14 10.8954 14 12V14C14 15.1046 13.1046 16 12 16H10C8.89543 16 8 15.1046 8 14V12Z" fill="#0c3387"/>
  <path d="M18 8C18 6.89543 18.8954 6 20 6H22C23.1046 6 24 6.89543 24 8V10C24 11.1046 23.1046 12 22 12H20C18.8954 12 18 11.1046 18 10V8Z" fill="#0c3387"/>
  <path d="M18 16C18 14.8954 18.8954 14 20 14H22C23.1046 14 24 14.8954 24 16V18C24 19.1046 23.1046 20 22 20H20C18.8954 20 18 19.1046 18 18V16Z" fill="#0c3387"/>
  <path d="M8 20C8 18.8954 8.89543 18 10 18H12C13.1046 18 14 18.8954 14 20V22C14 23.1046 13.1046 24 12 24H10C8.89543 24 8 23.1046 8 22V20Z" fill="#0c3387"/>
  <text x="16" y="20" font-family="system-ui, -apple-system" font-size="16" font-weight="700" fill="#0c3387" text-anchor="middle">sm</text>
</svg>
